<?xml version="1.0" standalone="no"?>
<!DOCTYPE svg PUBLIC "-//W3C//DTD SVG 20010904//EN"
 "http://www.w3.org/TR/2001/REC-SVG-20010904/DTD/svg10.dtd">
<svg version="1.0" xmlns="http://www.w3.org/2000/svg"
 width="280.000000pt" height="65.000000pt" viewBox="0 0 280.000000 65.000000"
 preserveAspectRatio="xMidYMid meet">

<g transform="translate(0.000000,65.000000) scale(0.100000,-0.100000)"
fill="#fff" stroke="none">
<path d="M343 633 c-55 -19 -141 -97 -164 -148 -33 -72 -23 -116 50 -225 37
-54 41 -107 10 -157 -23 -37 -84 -73 -124 -73 -35 0 -85 50 -85 85 0 58 55
115 110 115 12 0 18 5 15 10 -18 28 -108 -7 -136 -54 -51 -84 7 -166 118 -166
94 0 163 62 170 152 4 50 1 58 -46 133 -57 89 -63 123 -32 190 42 94 178 169
236 131 30 -20 33 -61 9 -108 -22 -42 -102 -126 -137 -145 -39 -20 -28 -28 14
-10 76 32 159 148 159 223 0 55 -81 78 -167 47z"/>
<path d="M1825 616 c-125 -29 -218 -70 -317 -139 -32 -22 -58 -41 -58 -43 0
-2 19 6 43 16 23 11 62 20 87 21 l45 2 -45 6 -45 6 72 32 c122 55 222 76 358
76 66 0 132 -5 148 -11 32 -14 35 -3 6 24 -18 16 -39 19 -128 21 -62 1 -131
-3 -166 -11z"/>
<path d="M1779 524 c-22 -30 -49 -70 -60 -89 -20 -33 -39 -39 -39 -11 0 8 -8
20 -17 27 -15 11 -16 11 -5 -1 6 -8 12 -28 12 -46 0 -27 -7 -36 -59 -67 -32
-20 -64 -44 -72 -53 -7 -9 9 -2 36 15 27 17 54 31 61 31 6 0 -13 -50 -44 -111
-37 -74 -57 -127 -60 -160 -6 -61 10 -64 27 -6 18 59 115 245 148 285 25 28
36 33 98 40 62 8 67 10 44 19 -15 7 -42 8 -67 3 l-41 -7 21 31 c12 17 41 56
65 87 l42 57 -25 5 c-21 4 -31 -4 -65 -49z"/>
<path d="M2300 408 c-24 -26 -83 -123 -128 -214 -17 -33 -50 -78 -74 -99 -40
-37 -43 -38 -46 -18 -2 13 13 51 32 86 l36 64 -21 26 c-11 15 -17 31 -14 37 3
5 1 10 -5 10 -6 0 -15 -11 -20 -25 -8 -22 -73 -113 -139 -195 -39 -49 -31 -10
19 90 28 56 49 104 47 106 -2 2 -18 1 -35 -2 -19 -4 -29 -11 -26 -19 8 -19
-38 -104 -86 -157 -23 -27 -37 -48 -32 -48 6 0 20 12 31 26 l21 27 0 -27 c0
-15 7 -29 16 -33 20 -7 52 24 127 124 76 103 94 96 42 -16 -21 -44 -35 -87
-32 -95 10 -26 41 -18 85 20 41 34 42 35 32 9 -13 -34 -13 -35 8 -35 12 0 26
20 46 65 32 73 118 165 124 132 5 -25 -24 -65 -59 -85 -24 -14 -28 -22 -24
-42 17 -71 63 -90 106 -44 l24 26 5 -29 c7 -40 40 -41 83 -4 l35 31 0 -25 c0
-65 42 -39 133 80 40 53 75 93 76 88 2 -6 -7 -38 -19 -73 -20 -54 -28 -65 -55
-74 -17 -6 -35 -15 -40 -19 -4 -5 5 -3 21 3 31 11 42 8 31 -9 -3 -6 -18 -11
-33 -11 -18 0 -23 -3 -15 -11 16 -16 62 1 86 33 12 16 43 45 69 63 26 19 52
44 59 57 7 15 -4 7 -32 -19 -46 -46 -64 -54 -55 -25 3 9 8 31 12 47 4 17 13
42 21 57 12 25 12 28 -2 28 -31 0 -52 -20 -112 -102 -68 -93 -113 -140 -113
-117 0 8 22 56 49 107 27 51 45 95 40 98 -4 2 -20 2 -34 -2 -17 -4 -25 -13
-25 -29 0 -54 -118 -211 -142 -187 -15 15 30 105 83 166 30 34 36 46 24 46
-18 0 -66 -46 -148 -143 -49 -58 -70 -69 -81 -41 -13 35 -5 59 24 76 29 17 60
70 60 103 0 26 -49 17 -92 -17 l-40 -31 26 52 c15 28 42 76 62 106 25 40 30
55 20 55 -9 0 -25 -10 -36 -22z"/>
<path d="M475 384 c-12 -12 -13 -20 -5 -28 13 -13 44 4 48 28 4 21 -22 21 -43
0z"/>
<path d="M1270 260 c0 -54 -28 -106 -84 -158 -80 -74 -98 -52 -40 52 54 100
32 152 -38 85 -31 -30 -31 -30 -5 -14 16 9 31 14 34 11 3 -3 -14 -39 -37 -81
-23 -42 -39 -83 -36 -91 6 -16 53 -18 90 -4 74 28 154 141 141 200 -10 46 -25
46 -25 0z"/>
<path d="M414 248 c-60 -71 -94 -193 -57 -205 14 -5 103 74 103 91 0 6 -16 -6
-35 -26 -18 -21 -39 -38 -45 -38 -16 0 -4 34 44 120 52 94 50 90 33 90 -8 0
-28 -15 -43 -32z"/>
<path d="M535 260 c-4 -11 -22 -41 -41 -65 -34 -46 -42 -61 -24 -50 5 3 1 -15
-10 -40 -24 -56 -25 -65 -4 -65 9 0 25 23 41 58 26 58 97 142 120 142 8 0 -3
-32 -32 -90 -51 -101 -55 -116 -25 -100 11 6 33 37 49 69 28 54 89 121 111
121 15 0 13 -8 -30 -85 -44 -79 -48 -100 -24 -109 23 -9 21 -10 67 33 l42 39
0 -37 c0 -30 4 -37 23 -39 25 -4 118 46 169 91 l33 29 -10 -26 c-5 -14 -16
-39 -25 -56 -10 -19 -11 -31 -5 -35 16 -10 35 10 55 57 11 24 28 56 39 73 11
16 22 36 24 45 16 72 -7 75 -46 7 -27 -47 -94 -117 -113 -117 -3 0 4 21 17 47
24 47 31 97 15 107 -4 3 -14 -14 -21 -37 -18 -63 -59 -139 -72 -135 -6 2 -16
11 -22 20 -12 19 15 86 52 130 13 15 20 28 15 28 -19 0 -55 -35 -107 -103 -99
-132 -130 -143 -66 -24 60 111 42 163 -33 97 l-36 -31 2 28 c3 40 -27 41 -75
3 -26 -21 -35 -25 -27 -12 13 20 7 52 -10 52 -5 0 -13 -9 -16 -20z m298 -198
c-23 -17 -37 0 -29 33 l7 26 19 -23 c18 -21 18 -24 3 -36z"/>
<path d="M1826 225 c-78 -80 -110 -185 -58 -185 14 0 18 6 15 28 -5 29 47 125
95 175 21 22 23 27 8 27 -9 0 -36 -20 -60 -45z"/>
</g>
</svg>
